<svg width="797" height="784" viewBox="0 0 797 784" fill="none" xmlns="http://www.w3.org/2000/svg">
<path d="M692.451 399.703C691.272 557.091 560.49 683.722 400.324 682.522C240.157 681.322 111.288 552.746 112.467 395.357C113.647 237.968 244.428 111.338 404.595 112.538C564.761 113.738 693.63 242.314 692.451 399.703Z" stroke="#616161"/>
<path d="M743.49 394.585C742.09 581.52 586.729 731.92 396.464 730.494C206.199 729.069 53.1092 576.357 54.5098 389.423C55.9105 202.488 211.271 52.0876 401.536 53.5132C591.801 54.9388 744.891 207.65 743.49 394.585Z" stroke="#676767"/>
<path d="M793.489 394.96C791.881 609.508 613.743 782.124 395.589 780.489C177.435 778.855 1.9036 603.589 3.51116 389.04C5.11873 174.492 183.257 1.87632 401.411 3.5109C619.565 5.14548 795.097 180.411 793.489 394.96Z" stroke="#676767"/>
</svg>
